<svg xml:space="preserve" viewBox="0 0 100 100" xmlns="http://www.w3.org/2000/svg" preserveAspectRatio="xMidYMid" width="200" height="200" style="margin:0;display:block;shape-rendering:auto;background-position-x:0;background-position-y:0;background-size:auto;background-origin:padding-box;background-clip:border-box;fill:#000;stroke:none;transform:none;opacity:1;background:0 0;width:200px;height:200px;animation:none"><g class="ldl-scale" style="transform-origin:50px 50px;transform:matrix(.8,0,0,.8,0,0);fill:#000;stroke:none;opacity:1;animation:none"><g class="ldl-ani" style="fill:#000;stroke:none;transform:none;opacity:1;animation:none"><g class="ldl-layer" style="fill:#000;stroke:none;transform:none;opacity:1;animation:none"><g style="fill:#000;stroke:none;transform:none;opacity:1;animation:none" class="ldl-ani"><g style="transform:matrix(1,0,0,1,0,0);transform-box:view-box;opacity:1;animation-name:animate;animation-duration:1s;animation-timing-function:linear;animation-delay:-.666667s;animation-iteration-count:infinite;animation-direction:normal;animation-fill-mode:forwards;animation-play-state:paused;transform-origin:50px 50px;fill:#000;stroke:none;animation:none" class="ldl-layer"><path d="M82.7 87.7c-1.3 0-2.6-.5-3.5-1.5L61.5 68.5c-2-2-2-5.1 0-7.1s5.1-2 7.1 0l17.7 17.7c2 2 2 5.1 0 7.1-1.1 1-2.3 1.5-3.6 1.5z" style="stroke-width:1px;fill:#a71930;stroke:none;transform:none;opacity:1;animation:none" class="ldl-ani"/></g></g></g><g class="ldl-layer" style="fill:#000;stroke:none;transform:none;opacity:1;animation:none"><g style="fill:#000;stroke:none;transform:none;opacity:1;animation:none" class="ldl-ani"><g style="fill:#000;stroke:none;transform:none;opacity:1;animation:none"><g style="transform:matrix(1,0,0,1,0,0);transform-box:view-box;opacity:1;animation-name:animate;animation-duration:1s;animation-timing-function:linear;animation-delay:-.833333s;animation-iteration-count:infinite;animation-direction:normal;animation-fill-mode:forwards;animation-play-state:paused;transform-origin:50px 50px;fill:#000;stroke:none;animation:none" class="ldl-layer"><circle r="27.5" fill="#e0e0e0" cy="43.8" cx="43.8" transform="rotate(-45.001 43.797 43.798)" style="stroke-width:1px;fill:#eee6e6;stroke:none;transform:none;opacity:1;animation:none" class="ldl-ani"/></g></g><g style="fill:#000;stroke:none;transform:none;opacity:1;animation:none"><g style="transform:matrix(1,0,0,1,0,0);transform-box:view-box;opacity:1;animation-name:animate;animation-duration:1s;animation-timing-function:linear;animation-delay:-1s;animation-iteration-count:infinite;animation-direction:normal;animation-fill-mode:forwards;animation-play-state:paused;transform-origin:50px 50px;fill:#000;stroke:none;animation:none" class="ldl-layer"><path fill="#666766" d="M43.8 75.3c-8.1 0-16.1-3.1-22.3-9.2-12.3-12.3-12.3-32.3 0-44.5C33.8 9.3 53.8 9.3 66 21.6c12.3 12.3 12.3 32.3 0 44.5-6.1 6.1-14.1 9.2-22.2 9.2zm0-55c-6 0-12 2.3-16.6 6.9-9.2 9.2-9.2 24.1 0 33.2 9.2 9.2 24.1 9.2 33.2 0 4.4-4.4 6.9-10.3 6.9-16.6s-2.4-12.2-6.9-16.6c-4.6-4.6-10.6-6.9-16.6-6.9z" style="stroke-width:1px;fill:#a71930;stroke:none;transform:none;opacity:1;animation:none" class="ldl-ani"/></g></g></g></g></g></g></svg>